<svg xmlns="http://www.w3.org/2000/svg" height="2048" preserveAspectRatio="none" style="display: block;" version="1.1" viewBox="0 0 2048 2048" width="2048">
<path d="M 0 0 L 2048 0 L 2048 2048 L 0 2048 L 0 0 z" fill="rgb(6,14,83)" transform="translate(0,0)"></path>
<path d="M 1130.26 551.756 C 1130.95 551.976 1131.7 552.152 1132.27 552.548 C 1131.67 553.018 1131.07 553.476 1130.42 553.958 C 1104.36 553.712 1057.24 558.319 1031.44 560.933 C 954.681 568.714 867.858 582.069 793.094 601.59 L 794.074 606.214 C 781.606 608.338 752.795 616.844 742.698 623.051 C 729.349 629.243 711.955 637.869 706.752 652.8 C 704.367 659.644 705.5 666.663 708.768 673.013 C 732.524 719.18 882.096 759.75 929.524 774.977 C 952.457 782.535 975.222 790.598 997.8 799.16 C 1003.09 801.204 1030.53 811.765 1034.68 814.458 L 1033.25 815.571 L 1028.89 814.563 L 1029.82 816.308 L 1030.77 815.596 L 1031.05 817.45 L 1032.3 818.652 C 1035.18 820.57 1041.58 823.337 1044.95 824.919 C 1107.05 854.076 1172.74 889.112 1214.26 945.906 C 1242.89 984.26 1254.81 1032.55 1247.3 1079.82 C 1228.07 1198.56 1120.45 1316.4 1045.63 1405.24 C 1040.09 1411.81 964.357 1497.34 960.059 1498.11 C 937.607 1502.12 881.232 1500.42 854.884 1500.38 L 692.42 1500.27 L 614.845 1500.42 C 585.721 1500.55 542.557 1505.49 524.454 1478.15 C 583.56 1445.12 641.517 1410.08 698.223 1373.09 C 767.697 1329.31 835.221 1282.51 900.601 1232.82 C 1056.2 1113.27 1216.06 962.404 952.109 832.453 C 916.5 814.74 887.794 802.012 849.995 787.379 C 805.436 770.129 570.573 700.039 679.158 628.415 C 713.555 609.975 762.456 593.585 800.665 586.644 C 881.75 571.916 967.482 560.853 1049.26 555.228 C 1076.24 553.614 1103.24 552.457 1130.26 551.756 z" fill="rgb(39,116,251)" transform="translate(0,0)"></path>
<path d="M 1032.3 818.652 C 995.849 804.796 954.159 785.998 917.203 774.148 C 840.327 749.499 558.843 665.547 793.094 601.59 L 794.074 606.214 C 781.606 608.338 752.795 616.844 742.698 623.051 C 729.349 629.243 711.955 637.869 706.752 652.8 C 704.367 659.644 705.5 666.663 708.768 673.013 C 732.524 719.18 882.096 759.75 929.524 774.977 C 952.457 782.535 975.222 790.598 997.8 799.16 C 1003.09 801.204 1030.53 811.765 1034.68 814.458 L 1033.25 815.571 L 1028.89 814.563 L 1029.82 816.308 L 1030.77 815.596 L 1031.05 817.45 L 1032.3 818.652 z" fill="rgb(6,14,83)" transform="translate(0,0)"></path>
<path d="M 1087.06 1191.1 C 1088.97 1193.27 1084.36 1258.44 1084.16 1267.17 C 1048.92 1296.12 1014 1325.46 979.405 1355.19 C 979.345 1355.13 979.276 1355.08 979.224 1355.02 C 976.995 1352.25 978.902 1275.5 978.946 1264.11 C 1012.81 1241.1 1052.52 1211.87 1087.06 1191.1 z" fill="rgb(6,14,83)" transform="translate(0,0)"></path>
<path d="M 938.116 1296.71 L 939.758 1297.64 C 940.859 1303.19 940.319 1318.54 940.264 1324.75 L 939.815 1374.16 C 932.861 1380.28 925.586 1387.32 918.753 1393.66 C 901.588 1379.09 896.21 1406.37 894.187 1418.03 L 884.834 1422.85 C 887.232 1385.37 888.214 1380.45 911.623 1352.59 L 911.695 1351.09 C 901.24 1346.46 818.169 1349.15 813.101 1345.01 L 813.018 1342.9 C 814.427 1342.25 815.368 1341.98 816.852 1341.63 C 820.039 1336.44 825.367 1318.89 826.887 1312.82 C 855.674 1312.87 885.945 1313.96 914.866 1314.48 C 921.29 1307.21 929.57 1301.24 938.116 1296.71 z" fill="rgb(6,14,83)" transform="translate(0,0)"></path>
<path d="M 933.656 1302.84 C 936.509 1305.98 935.323 1329.92 935.436 1336.19 C 929.011 1340.82 925.477 1344.14 919.509 1349.23 C 916.65 1346.65 921.751 1316.93 922.419 1310.81 C 926.537 1307.48 929.182 1305.69 933.656 1302.84 z" fill="rgb(39,116,251)" transform="translate(0,0)"></path>
<path d="M 1064.06 1188.55 L 1079.55 1188.07 L 976.789 1254.45 C 952.091 1252.93 924.68 1252.72 899.75 1252.02 L 883.263 1251.72 C 916.463 1231.55 951 1212.35 983.7 1191.94 C 1009.4 1191.7 1038.24 1189.77 1064.06 1188.55 z" fill="rgb(6,14,83)" transform="translate(0,0)"></path>
<path d="M 871.019 1265.68 C 902.518 1265.38 934.371 1266.54 965.921 1266.51 L 965.432 1352.62 L 956.681 1360.11 L 945.604 1369.27 C 945.505 1342.86 945.562 1316.45 945.776 1290.04 C 921.567 1289.65 895.317 1288.09 871.017 1287 L 871.019 1265.68 z" fill="rgb(6,14,83)" transform="translate(0,0)"></path>
<path d="M 801.068 1384.83 C 826.161 1384.62 859.036 1387.19 884.709 1388.57 C 882.551 1401.41 882.049 1409.02 881.718 1422.03 C 881.667 1422.53 881.557 1423.94 881.076 1423.94 C 862.222 1424.08 817.394 1420.79 800.885 1419.97 C 800.824 1408.26 800.885 1396.54 801.068 1384.83 z" fill="rgb(6,14,83)" transform="translate(0,0)"></path>
<path d="M 795.023 1424.81 C 824.386 1425.3 854.177 1428.64 883.535 1429.89 C 888.4 1430.1 885.938 1435.66 885.344 1439.77 C 881.102 1440.33 859.789 1438.59 853.999 1438.27 C 835.3 1437.23 815.892 1436.46 797.266 1434.92 C 796.276 1431.52 795.769 1428.26 795.023 1424.81 z" fill="rgb(6,14,83)" transform="translate(0,0)"></path>
<path d="M 910.415 1399.7 C 921.661 1400.18 919.27 1410.01 918.97 1419.01 C 918.711 1426.78 914.248 1432.83 908.513 1437.36 C 893.724 1430.6 897.846 1409.67 908.957 1400.89 L 910.415 1399.7 z" fill="rgb(6,14,83)" transform="translate(0,0)"></path>
<path d="M 967.533 1359.11 C 967.649 1359.31 968.676 1360.95 968.649 1361.08 C 968.414 1362.22 972.461 1366.46 972.324 1366.59 C 958.708 1379.25 941.975 1390.84 927.54 1402.58 C 923.769 1403.23 923.72 1396.42 923.209 1396.92 C 936.819 1383.69 953.438 1372.75 967.533 1359.11 z" fill="rgb(6,14,83)" transform="translate(0,0)"></path>
<path d="M 1026.56 1319.93 C 1030.65 1328.44 1029.95 1352.37 1018.59 1354.17 L 1016.67 1354.5 C 1011.34 1345.34 1012.7 1342.48 1013.15 1331.36 C 1017.41 1327.31 1021.89 1323.49 1026.56 1319.93 z" fill="rgb(6,14,83)" transform="translate(0,0)"></path>
<path d="M 1036.03 1314.52 C 1036.53 1314.39 1037.03 1314.26 1037.54 1314.13 C 1037.42 1314.36 1036.76 1314.71 1036.34 1314.98 C 1036.08 1315 1034.9 1315.15 1034.62 1315.11 C 1034.77 1314.92 1035.58 1314.68 1036.03 1314.52 z" fill="rgb(6,14,83)" transform="translate(0,0)"></path>
<path d="M 741.308 628.59 C 757.731 620.767 787.991 608.886 806.292 606.849 C 789.286 612.453 718.347 632.961 729.146 653.543 C 747.132 687.823 861.76 716.275 893.5 725.818 L 1022.04 763.764 C 1049.73 771.803 1077.11 778.274 1104.82 787.299 C 1254.44 836.033 1426.78 910.085 1493.01 1064.6 C 1538.72 1171.24 1521.31 1283.38 1487.89 1390.51 C 1481 1412.59 1473.35 1435.37 1465.33 1457.08 C 1459.01 1474.18 1446.59 1484.42 1429.99 1491.28 C 1418.91 1495.77 1407.22 1498.55 1395.3 1499.51 C 1381.73 1500.69 1364.33 1500.18 1350.37 1500.15 L 1278.73 1500.01 L 1197.88 1500.12 C 1180.93 1500.15 1137.37 1503.63 1127.17 1489.23 C 1126.1 1480.55 1148.97 1453.68 1154.58 1445.41 C 1261.99 1287.03 1419.87 1055.28 1218.07 897.907 C 1187.46 874.272 1154.52 853.823 1119.75 836.877 L 1113.09 837.847 C 1071 817.525 1027.88 799.404 983.911 783.557 C 928.519 763.579 755.017 717.31 723.062 678.208 C 721.493 677.101 719.455 674.397 718.328 672.816 C 704.47 653.376 726.769 638.008 741.308 628.59 z" fill="rgb(39,116,251)" transform="translate(0,0)"></path>
<path d="M 723.062 678.208 C 759.254 704.151 798.273 717.162 839.677 732.437 C 908.016 757.649 978.76 777.876 1046.39 804.888 C 1068.33 813.652 1099.06 825.783 1119.75 836.877 L 1113.09 837.847 C 1071 817.525 1027.88 799.404 983.911 783.557 C 928.519 763.579 755.017 717.31 723.062 678.208 z" fill="rgb(6,14,83)" transform="translate(0,0)"></path>
<path d="M 742.698 623.051 C 742.42 624.882 741.385 627.459 741.308 628.59 C 726.769 638.008 704.47 653.376 718.328 672.816 C 719.455 674.397 721.493 677.101 723.062 678.208 C 755.017 717.31 928.519 763.579 983.911 783.557 C 1027.88 799.404 1071 817.525 1113.09 837.847 C 1270.83 919.571 1349.92 1022.55 1268.28 1201.21 C 1216.61 1314.31 1149.34 1400.31 1074.95 1498.79 C 1053.13 1499.06 1030.85 1498.87 1008.99 1498.9 C 1029.4 1471.75 1055.33 1443.23 1077.06 1416.1 C 1142.41 1334.47 1208.76 1248.45 1247.99 1150.72 C 1268.87 1098.7 1278.21 1041.78 1254.45 989.369 C 1223.64 921.373 1155.09 872.919 1090.16 840.174 C 1072.28 831.154 1053.32 821.604 1034.68 814.458 C 1030.53 811.765 1003.09 801.204 997.8 799.16 C 975.222 790.598 952.457 782.535 929.524 774.977 C 882.096 759.75 732.524 719.18 708.768 673.013 C 705.5 666.663 704.367 659.644 706.752 652.8 C 711.955 637.869 729.349 629.243 742.698 623.051 z" fill="rgb(244,188,120)" transform="translate(0,0)"></path>
<path d="M 794.074 606.214 C 806.523 602.248 822.27 599.538 835.431 597.005 C 896.865 585.181 959.209 574.662 1021.61 569.838 C 1027.57 569.377 1030.66 568.209 1037.25 568.233 L 1038.14 568.781 C 1036.08 569.812 960.403 577.304 949.711 579.313 C 902.69 588.15 852.327 592.74 806.292 606.849 C 787.991 608.886 757.731 620.767 741.308 628.59 C 741.385 627.459 742.42 624.882 742.698 623.051 C 752.795 616.844 781.606 608.338 794.074 606.214 z" fill="rgb(104,87,90)" transform="translate(0,0)"></path>
<path d="M 1130.26 551.756 C 1132.81 550.525 1180.11 550.104 1181.35 550.864 C 1181.35 550.967 1181.35 551.071 1181.34 551.175 C 1181.39 551.147 1133.86 554.016 1130.42 553.958 C 1131.07 553.476 1131.67 553.018 1132.27 552.548 C 1131.7 552.152 1130.95 551.976 1130.26 551.756 z" fill="rgb(21,56,155)" transform="translate(0,0)"></path>
<metadata><recraft-signature>{"signed_by": "recraft", "signature_b64": "QmOO8HQLhk8LoQsYzRqsa7JiW4nFeteqEEbEqo2ahMNRCBvqqiXa5NTmPLI4QF62q+fCrUrTdPd8QkIqrt0MCQ==", "signing_algo": "Ed25519", "generation_timestamp": 1783049443, "identifier": "394260a7-373d-4979-82a7-bc2797b49f18"}</recraft-signature></metadata></svg>